<?xml version="1.0" standalone="no"?>
<!DOCTYPE svg PUBLIC "-//W3C//DTD SVG 20010904//EN"
 "http://www.w3.org/TR/2001/REC-SVG-20010904/DTD/svg10.dtd">
<svg version="1.0" xmlns="http://www.w3.org/2000/svg"
 width="327.000000pt" height="329.000000pt" viewBox="0 0 327.000000 329.000000"
 preserveAspectRatio="xMidYMid meet">

<g transform="translate(0.000000,329.000000) scale(0.100000,-0.100000)"
fill="#000000" stroke="none">
<path d="M0 1640 l0 -1640 1635 0 1635 0 0 1640 0 1640 -1635 0 -1635 0 0
-1640z m2982 1181 c51 -22 80 -52 102 -105 14 -34 16 -148 16 -1069 0 -784 -3
-1039 -12 -1071 -18 -60 -75 -111 -137 -125 -73 -16 -2569 -16 -2642 0 -62 14
-119 65 -137 125 -17 57 -18 2074 -1 2125 18 53 54 94 101 117 43 21 46 21
1355 22 1262 0 1313 -1 1355 -19z"/>
<path d="M912 2207 c-39 -40 -72 -77 -72 -82 0 -6 106 -116 235 -245 129 -129
235 -239 235 -245 0 -6 -106 -116 -235 -245 -129 -129 -235 -239 -235 -245 0
-13 142 -155 155 -155 13 0 645 632 645 645 0 13 -632 645 -645 645 -6 0 -43
-33 -83 -73z"/>
</g>
</svg>
